<svg width="44" height="44" fill="none" xmlns="http://www.w3.org/2000/svg"><path d="M21.8386 2.68164C11.4343 2.68164 3 11.3314 3 21.9998C3 32.6683 11.4343 41.318 21.8386 41.318C32.2434 41.318 40.6622 32.6683 40.6622 21.9998C40.6622 11.3314 32.2429 2.68164 21.8386 2.68164ZM35.6318 21.0218H25.3082C25.2627 21.0233 25.2176 21.0136 25.1768 20.9934C25.136 20.9733 25.1009 20.9434 25.0744 20.9064C25.0452 20.8696 25.0269 20.8253 25.0215 20.7787C25.0161 20.732 25.0239 20.6847 25.044 20.6422L28.7787 10.2041C28.7904 10.1437 28.8236 10.0894 28.8721 10.0515C28.9207 10.0136 28.9813 9.99458 29.0428 9.99792H29.2186C31.0712 11.2101 32.6154 12.8378 33.7286 14.7515C34.8417 16.6652 35.494 18.8122 35.6318 21.0218ZM8.00341 21.9998C8.00341 14.1673 14.1939 7.8169 21.8328 7.8169C22.6031 7.81883 23.372 7.88596 24.1307 8.01781L14.7918 34.1993C12.7092 32.9191 10.9913 31.1242 9.80341 28.9876C8.61557 26.8509 7.99783 24.4444 8.00969 21.9998H8.00341ZM21.8386 36.1794C21.092 36.1794 20.3463 36.1175 19.6103 35.9944L22.974 26.3334C22.993 26.2769 23.0281 26.2272 23.0751 26.1905C23.1221 26.1539 23.1788 26.1318 23.2382 26.1272H35.0788C33.3605 31.9458 28.0745 36.1794 21.8386 36.1794Z" fill="#FF0089"/></svg>