<svg width="21" height="20" fill="none" xmlns="http://www.w3.org/2000/svg"><path d="M2.5 15.1807C3.41554 13.6536 5.42209 12.6084 8.5526 12.6084C11.6831 12.6084 13.6897 13.6536 14.6052 15.1807M15.1844 11.4505C16.8422 12.2794 17.6711 13.1083 18.5 14.7661M13.4602 5.11466C14.2402 5.53429 14.7705 6.35826 14.7705 7.30609C14.7705 8.22653 14.2704 9.03016 13.5272 9.46013M11.0393 7.30606C11.0393 8.67944 9.92598 9.79278 8.5526 9.79278C7.17922 9.79278 6.06587 8.67944 6.06587 7.30606C6.06587 5.93268 7.17922 4.81934 8.5526 4.81934C9.92598 4.81934 11.0393 5.93268 11.0393 7.30606Z" stroke="#4F4D55" stroke-width="2" stroke-linecap="round"/></svg>