<svg width="8" height="12" fill="none" xmlns="http://www.w3.org/2000/svg"><g clip-path="url(#clip0_253_175)"><path opacity="0.8" d="M-2.94906 1.34626C-2.80836 1.23745 -2.63153 1.18629 -2.45448 1.20316C-2.27743 1.22002 -2.11344 1.30366 -1.99582 1.43708C-1.87819 1.57049 -1.81575 1.74369 -1.82118 1.92148C-1.82661 2.09927 -1.8995 2.26833 -2.02504 2.39432L-5.7302 6.1L-2.02504 9.80568L-1.96694 9.87149C-1.85815 10.0122 -1.807 10.1891 -1.82386 10.3661C-1.84073 10.5432 -1.92435 10.7072 -2.05775 10.8249C-2.19115 10.9425 -2.36432 11.005 -2.54208 10.9995C-2.71985 10.9941 -2.88889 10.9212 -3.01486 10.7956L-7.21492 6.59498L-7.27302 6.52917C-7.37749 6.39446 -7.42924 6.22626 -7.41854 6.05612C-7.40784 5.88597 -7.33544 5.72558 -7.21492 5.60502L-3.01486 1.40437L-2.94906 1.34626ZM2.10921 10.8537C1.96852 10.9625 1.79169 11.0137 1.61464 10.9968C1.43759 10.98 1.2736 10.8963 1.15597 10.7629C1.03835 10.6295 0.97591 10.4563 0.981339 10.2785C0.986767 10.1007 1.05966 9.93167 1.1852 9.80568L4.89035 6.1L1.1852 2.39432L1.1271 2.32851C1.01831 2.18779 0.967154 2.01094 0.984019 1.83387C1.00089 1.65679 1.08451 1.49278 1.21791 1.37514C1.35131 1.25749 1.52447 1.19505 1.70224 1.20047C1.88001 1.2059 2.04904 1.2788 2.17502 1.40437L6.37507 5.60502L6.43317 5.67083C6.53765 5.80554 6.58939 5.97374 6.5787 6.14388C6.568 6.31403 6.4956 6.47442 6.37507 6.59498L2.17502 10.7956L2.10921 10.8537Z" fill="#323232"/></g><defs><clipPath id="clip0_253_175"><rect width="12" height="7" fill="white" transform="matrix(0 -1 1 0 0.5 12)"/></clipPath></defs></svg>